<?xml version="1.0" standalone="no"?>
<!DOCTYPE svg PUBLIC "-//W3C//DTD SVG 20010904//EN"
 "http://www.w3.org/TR/2001/REC-SVG-20010904/DTD/svg10.dtd">
<svg version="1.0" xmlns="http://www.w3.org/2000/svg"
 width="1022.000000pt" height="1022.000000pt" viewBox="0 0 1022.000000 1022.000000"
 preserveAspectRatio="xMidYMid meet">
<metadata>
Created by potrace 1.14, written by Peter Selinger 2001-2017
</metadata>
<g transform="translate(0.000000,1022.000000) scale(0.100000,-0.100000)"
fill="#000000" stroke="none">
<path d="M6395 9951 c-116 -29 -223 -81 -385 -186 -266 -172 -378 -299 -367
-413 6 -64 28 -106 160 -300 l110 -163 -2 -69 c-2 -65 1 -76 53 -185 31 -64
56 -120 56 -125 0 -5 15 -28 33 -52 18 -24 55 -74 82 -113 27 -38 63 -91 82
-117 18 -26 33 -50 33 -53 0 -6 -82 36 -90 46 -3 3 -15 12 -28 18 -13 7 -31
19 -40 28 -9 8 -53 42 -97 75 -44 33 -111 84 -150 113 -38 29 -98 66 -131 83
-34 17 -84 46 -110 64 -65 43 -243 221 -333 331 -39 49 -78 96 -86 104 -8 8
-15 17 -15 21 0 4 -13 21 -28 39 -15 18 -56 73 -92 124 -103 146 -86 134 -260
179 -168 44 -209 66 -243 131 -17 31 -19 78 -6 128 4 13 -107 48 -266 86 -11
2 -47 12 -80 21 -33 8 -76 19 -95 23 -19 5 -47 13 -62 19 -16 7 -28 10 -28 8
0 -2 -21 2 -47 10 -25 8 -52 14 -60 14 -11 0 116 -88 529 -366 97 -66 82 -38
139 -244 39 -140 59 -193 96 -259 90 -162 327 -486 372 -510 19 -11 132 -8
187 4 64 15 268 77 309 95 l44 19 98 -60 c132 -80 126 -77 217 -139 153 -103
230 -168 283 -235 49 -64 49 -78 -9 -138 -28 -29 -68 -79 -90 -112 l-40 -60 7
-95 c4 -52 9 -112 10 -132 3 -44 31 -86 88 -131 52 -41 299 -163 348 -171 23
-4 40 -14 48 -30 13 -24 120 -92 177 -113 43 -15 134 -84 134 -101 0 -7 25
-36 56 -65 l56 -52 -16 -55 c-11 -35 -16 -85 -15 -138 2 -80 18 -141 70 -268
11 -29 10 -34 -32 -89 -24 -32 -53 -70 -63 -84 -40 -53 -122 -148 -186 -214
l-65 -68 -43 32 c-24 18 -44 42 -48 57 -29 131 -99 239 -190 291 -9 4 -8 24 2
76 21 112 19 161 -12 191 -22 23 -32 25 -78 22 l-53 -4 -27 51 c-60 115 -183
222 -338 294 -78 37 -220 81 -260 81 -11 0 -24 14 -33 37 -44 104 -119 124
-370 97 -184 -19 -381 -99 -458 -184 -61 -68 -159 -110 -232 -101 -44 5 -50 9
-48 28 3 21 2 22 -38 7 -54 -19 -52 -19 -73 21 -22 40 -27 18 62 265 189 518
271 1046 211 1350 l-19 95 -83 79 c-147 141 -283 244 -402 304 -103 51 -169
66 -365 81 -34 2 -15 12 90 46 47 15 88 31 93 35 8 7 -191 5 -239 -3 -176 -31
-335 -106 -430 -204 -101 -103 -194 -360 -233 -643 -22 -161 -8 -464 29 -638
71 -327 294 -683 633 -1014 44 -42 76 -81 73 -87 -13 -20 -97 -64 -106 -55 -5
5 -10 22 -12 37 -2 15 -7 29 -12 30 -4 1 -26 -32 -48 -73 -21 -41 -51 -93 -65
-115 l-27 -40 -29 65 -29 64 -12 -29 c-7 -17 -19 -48 -26 -70 -16 -50 -89
-162 -129 -197 l-30 -28 -20 46 c-29 64 -118 199 -229 344 -344 451 -866 968
-1209 1199 -65 43 -76 44 -43 1 41 -52 18 -62 -100 -44 -41 6 -84 10 -95 9
-11 -2 -42 -6 -69 -10 -28 -4 -71 -15 -96 -25 -26 -10 -75 -24 -111 -30 -84
-17 -91 -25 -21 -27 31 -1 64 -2 72 -3 8 -1 -21 -14 -65 -29 -193 -66 -342
-172 -436 -308 -35 -50 -155 -299 -175 -363 -44 -137 -54 -326 -22 -417 20
-55 1 -49 -49 16 l-36 46 7 -44 c8 -53 61 -171 107 -238 93 -135 208 -240 368
-335 447 -266 772 -357 1273 -354 162 1 185 -1 178 -14 -17 -34 -61 -173 -75
-241 -24 -110 -30 -181 -29 -319 1 -142 19 -248 68 -390 29 -84 31 -100 22
-137 -6 -23 -18 -50 -27 -60 -9 -10 -20 -38 -23 -63 l-7 -45 22 45 c21 44 22
44 29 19 4 -15 8 -69 9 -122 1 -53 8 -126 17 -164 23 -109 28 -161 28 -278 l0
-110 28 60 c15 33 33 77 39 97 24 75 31 45 32 -140 0 -50 2 -92 3 -92 2 0 11
14 20 31 12 24 18 28 24 18 7 -11 20 -74 25 -124 8 -79 35 -150 78 -206 16
-22 48 -99 78 -190 60 -180 118 -331 159 -411 l28 -58 -88 -132 c-48 -73 -118
-170 -154 -215 -81 -100 -217 -227 -290 -271 l-54 -33 -79 24 c-233 74 -408
106 -558 103 -155 -3 -211 -40 -220 -147 -2 -30 -7 -80 -11 -112 -5 -47 -2
-63 15 -92 l21 -36 -23 -8 c-118 -46 -256 -129 -280 -171 -55 -92 7 -286 109
-346 39 -23 57 -27 122 -27 128 1 286 65 349 140 70 83 152 112 227 80 l29
-13 -24 -15 c-13 -9 -40 -31 -59 -49 -19 -18 -73 -59 -120 -90 -219 -148 -255
-241 -144 -377 59 -72 123 -133 150 -143 93 -36 160 4 387 231 l178 178 62
-16 c40 -10 86 -14 134 -11 134 9 229 78 303 218 21 42 47 83 57 92 43 38 199
102 313 128 19 5 46 11 60 15 55 13 170 34 221 40 30 3 61 8 69 10 15 4 73 10
200 21 109 9 330 6 420 -6 191 -26 356 -113 531 -282 164 -158 301 -374 393
-622 36 -96 81 -254 92 -326 3 -19 9 -51 13 -70 10 -48 8 -60 -33 -177 -54
-157 -64 -255 -27 -292 17 -17 50 -18 726 -17 l709 1 17 30 c10 17 20 57 24
90 3 33 8 76 11 95 12 84 6 137 -21 193 -14 32 -32 63 -38 70 -7 7 -32 37 -57
67 l-45 55 0 175 c0 184 6 263 30 395 8 44 16 92 19 106 9 57 58 228 83 289
78 197 149 287 328 415 159 114 426 247 585 291 108 30 231 56 311 66 113 14
115 13 414 -59 155 -38 207 -47 285 -47 104 -1 130 8 205 69 113 91 258 266
303 365 19 41 26 73 26 125 1 54 8 83 30 130 70 150 81 292 30 392 -49 95
-131 142 -274 158 -63 7 -253 8 -290 1 -14 -3 -54 -7 -90 -10 -36 -3 -87 -10
-114 -15 -44 -8 -53 -6 -106 24 -167 94 -365 266 -496 428 -30 37 -79 98 -109
136 -72 89 -165 184 -204 207 -21 12 -31 26 -32 44 -2 56 -18 237 -24 267 -2
11 -6 37 -9 57 -10 61 -25 120 -50 202 -25 78 -25 94 -11 209 3 28 10 88 16
135 15 130 20 173 24 200 2 14 9 61 15 105 16 111 15 103 40 265 13 80 26 148
29 152 3 4 29 10 56 13 94 12 183 45 257 94 l72 49 82 -64 c45 -35 95 -71 110
-79 15 -7 37 -25 48 -39 31 -37 321 -271 336 -271 17 0 108 -75 193 -157 38
-38 73 -68 79 -68 5 0 22 -12 37 -27 30 -31 30 -32 191 -159 179 -142 270
-206 363 -259 48 -27 87 -51 87 -54 0 -3 11 -19 24 -36 20 -25 26 -27 39 -17
26 22 89 16 147 -13 37 -19 73 -28 117 -30 59 -3 63 -2 63 18 0 12 -11 40 -24
61 -40 66 -180 225 -204 232 -13 3 -21 11 -19 18 3 10 -15 32 -108 130 -241
256 -351 366 -361 362 -11 -4 -54 33 -54 47 0 3 10 15 22 27 l22 20 -30 1
c-16 1 -37 0 -47 -1 -11 -1 -22 10 -30 29 -17 39 -193 221 -215 221 -16 0 -62
56 -62 76 0 5 -80 91 -178 192 -97 100 -174 182 -170 182 4 0 20 24 35 53 36
70 36 143 1 190 -48 61 -103 108 -167 140 -56 27 -74 31 -137 30 -99 -2 -111
11 -89 93 29 111 15 174 -55 248 -94 99 -172 131 -275 112 -40 -7 -41 -6 -88
49 -27 30 -55 55 -63 55 -8 0 -12 5 -9 10 6 9 -17 48 -52 90 -7 8 -43 58 -81
110 -37 52 -73 96 -80 96 -6 1 -16 2 -21 3 -5 0 -7 10 -4 21 4 14 -21 53 -93
142 -149 187 -205 252 -227 263 -11 5 -29 26 -39 45 -21 39 -128 144 -168 165
-50 26 -93 27 -188 5 -51 -12 -98 -20 -105 -17 -14 5 -80 -30 -151 -81 l-48
-35 -77 79 c-212 218 -344 482 -327 655 7 65 85 226 162 332 50 69 170 196
189 200 4 1 15 -18 24 -43 36 -94 84 -180 132 -234 39 -43 70 -65 143 -100
135 -66 237 -97 325 -101 67 -3 101 1 188 20 27 6 185 86 181 91 -2 2 -25 -3
-51 -11 -159 -48 -307 -14 -356 83 -10 20 -31 96 -46 167 -78 378 -147 560
-236 628 -45 34 -114 40 -204 18z"/>
</g>
</svg>
